<?xml version="1.0" encoding="UTF-8" standalone="no"?>
<!DOCTYPE svg PUBLIC "-//W3C//DTD SVG 1.1//EN"
 "http://www.w3.org/Graphics/SVG/1.1/DTD/svg11.dtd">
<!-- Generated by graphviz version 2.43.0 (0)
 -->
<!-- Title: %3 Pages: 1 -->
<svg width="280pt" height="305pt"
 viewBox="0.00 0.00 280.28 304.86" xmlns="http://www.w3.org/2000/svg" xmlns:xlink="http://www.w3.org/1999/xlink">
<g id="graph0" class="graph" transform="scale(1 1) rotate(0) translate(4 300.86)">
<title>%3</title>
<polygon fill="white" stroke="transparent" points="-4,4 -4,-300.86 276.28,-300.86 276.28,4 -4,4"/>
<!-- elapsed_time -->
<g id="node1" class="node">
<title>elapsed_time</title>
<ellipse fill="none" stroke="black" cx="194.5" cy="-148.43" rx="77.56" ry="37.45"/>
<text text-anchor="middle" x="194.5" y="-159.73" font-family="Times,serif" font-size="14.00">elapsed_time</text>
<text text-anchor="middle" x="194.5" y="-144.73" font-family="Times,serif" font-size="14.00">~</text>
<text text-anchor="middle" x="194.5" y="-129.73" font-family="Times,serif" font-size="14.00">Uniform</text>
</g>
<!-- n -->
<g id="node3" class="node">
<title>n</title>
<ellipse fill="lightgrey" stroke="black" cx="121.5" cy="-37.48" rx="50.41" ry="37.45"/>
<text text-anchor="middle" x="121.5" y="-48.78" font-family="Times,serif" font-size="14.00">n</text>
<text text-anchor="middle" x="121.5" y="-33.78" font-family="Times,serif" font-size="14.00">~</text>
<text text-anchor="middle" x="121.5" y="-18.78" font-family="Times,serif" font-size="14.00">Poisson</text>
</g>
<!-- elapsed_time&#45;&gt;n -->
<g id="edge2" class="edge">
<title>elapsed_time&#45;&gt;n</title>
<path fill="none" stroke="black" d="M171.2,-112.66C164.22,-102.24 156.49,-90.71 149.26,-79.91"/>
<polygon fill="black" stroke="black" points="152.05,-77.8 143.58,-71.44 146.24,-81.69 152.05,-77.8"/>
</g>
<!-- gap_time -->
<g id="node2" class="node">
<title>gap_time</title>
<ellipse fill="none" stroke="black" cx="194.5" cy="-259.38" rx="74.49" ry="37.45"/>
<text text-anchor="middle" x="194.5" y="-270.68" font-family="Times,serif" font-size="14.00">gap_time</text>
<text text-anchor="middle" x="194.5" y="-255.68" font-family="Times,serif" font-size="14.00">~</text>
<text text-anchor="middle" x="194.5" y="-240.68" font-family="Times,serif" font-size="14.00">Interpolated</text>
</g>
<!-- gap_time&#45;&gt;elapsed_time -->
<g id="edge1" class="edge">
<title>gap_time&#45;&gt;elapsed_time</title>
<path fill="none" stroke="black" d="M194.5,-221.8C194.5,-213.63 194.5,-204.85 194.5,-196.32"/>
<polygon fill="black" stroke="black" points="198,-196.1 194.5,-186.1 191,-196.1 198,-196.1"/>
</g>
<!-- rate -->
<g id="node4" class="node">
<title>rate</title>
<ellipse fill="none" stroke="black" cx="49.5" cy="-148.43" rx="49.49" ry="37.45"/>
<text text-anchor="middle" x="49.5" y="-159.73" font-family="Times,serif" font-size="14.00">rate</text>
<text text-anchor="middle" x="49.5" y="-144.73" font-family="Times,serif" font-size="14.00">~</text>
<text text-anchor="middle" x="49.5" y="-129.73" font-family="Times,serif" font-size="14.00">Normal</text>
</g>
<!-- rate&#45;&gt;n -->
<g id="edge3" class="edge">
<title>rate&#45;&gt;n</title>
<path fill="none" stroke="black" d="M71.3,-114.44C78.49,-103.56 86.58,-91.32 94.13,-79.89"/>
<polygon fill="black" stroke="black" points="97.18,-81.62 99.77,-71.35 91.34,-77.76 97.18,-81.62"/>
</g>
</g>
</svg>