<?xml version="1.0" encoding="UTF-8" standalone="no"?>
<!DOCTYPE svg PUBLIC "-//W3C//DTD SVG 1.1//EN"
 "http://www.w3.org/Graphics/SVG/1.1/DTD/svg11.dtd">
<!-- Generated by graphviz version 2.49.0 (20210829.0051)
 -->
<!-- Pages: 1 -->
<svg width="266pt" height="344pt"
 viewBox="0.00 0.00 266.21 343.86" xmlns="http://www.w3.org/2000/svg" xmlns:xlink="http://www.w3.org/1999/xlink">
<g id="graph0" class="graph" transform="scale(1 1) rotate(0) translate(4 339.86)">
<polygon fill="white" stroke="transparent" points="-4,4 -4,-339.86 262.21,-339.86 262.21,4 -4,4"/>
<g id="clust1" class="cluster">
<title>cluster13</title>
<path fill="none" stroke="black" d="M67.71,-8C67.71,-8 211.71,-8 211.71,-8 217.71,-8 223.71,-14 223.71,-20 223.71,-20 223.71,-220.91 223.71,-220.91 223.71,-226.91 217.71,-232.91 211.71,-232.91 211.71,-232.91 67.71,-232.91 67.71,-232.91 61.71,-232.91 55.71,-226.91 55.71,-220.91 55.71,-220.91 55.71,-20 55.71,-20 55.71,-14 61.71,-8 67.71,-8"/>
<text text-anchor="middle" x="206.21" y="-15.8" font-family="Times,serif" font-size="14.00">13</text>
</g>
<!-- sigma -->
<g id="node1" class="node">
<title>sigma</title>
<ellipse fill="none" stroke="black" cx="70.71" cy="-298.38" rx="70.92" ry="37.45"/>
<text text-anchor="middle" x="70.71" y="-309.68" font-family="Times,serif" font-size="14.00">sigma</text>
<text text-anchor="middle" x="70.71" y="-294.68" font-family="Times,serif" font-size="14.00">~</text>
<text text-anchor="middle" x="70.71" y="-279.68" font-family="Times,serif" font-size="14.00">HalfNormal</text>
</g>
<!-- xs -->
<g id="node3" class="node">
<title>xs</title>
<ellipse fill="none" stroke="black" cx="139.71" cy="-187.43" rx="75.82" ry="37.45"/>
<text text-anchor="middle" x="139.71" y="-198.73" font-family="Times,serif" font-size="14.00">xs</text>
<text text-anchor="middle" x="139.71" y="-183.73" font-family="Times,serif" font-size="14.00">~</text>
<text text-anchor="middle" x="139.71" y="-168.73" font-family="Times,serif" font-size="14.00">LogitNormal</text>
</g>
<!-- sigma&#45;&gt;xs -->
<g id="edge1" class="edge">
<title>sigma&#45;&gt;xs</title>
<path fill="none" stroke="black" d="M92.73,-262.61C98.83,-252.98 105.54,-242.39 111.92,-232.31"/>
<polygon fill="black" stroke="black" points="115.03,-233.94 117.42,-223.62 109.12,-230.2 115.03,-233.94"/>
</g>
<!-- mu -->
<g id="node2" class="node">
<title>mu</title>
<ellipse fill="none" stroke="black" cx="208.71" cy="-298.38" rx="49.49" ry="37.45"/>
<text text-anchor="middle" x="208.71" y="-309.68" font-family="Times,serif" font-size="14.00">mu</text>
<text text-anchor="middle" x="208.71" y="-294.68" font-family="Times,serif" font-size="14.00">~</text>
<text text-anchor="middle" x="208.71" y="-279.68" font-family="Times,serif" font-size="14.00">Normal</text>
</g>
<!-- mu&#45;&gt;xs -->
<g id="edge2" class="edge">
<title>mu&#45;&gt;xs</title>
<path fill="none" stroke="black" d="M187.82,-264.4C181.37,-254.22 174.17,-242.84 167.34,-232.06"/>
<polygon fill="black" stroke="black" points="170.28,-230.15 161.97,-223.57 164.36,-233.9 170.28,-230.15"/>
</g>
<!-- ks -->
<g id="node4" class="node">
<title>ks</title>
<ellipse fill="lightgrey" stroke="black" cx="139.71" cy="-76.48" rx="56.64" ry="37.45"/>
<text text-anchor="middle" x="139.71" y="-87.78" font-family="Times,serif" font-size="14.00">ks</text>
<text text-anchor="middle" x="139.71" y="-72.78" font-family="Times,serif" font-size="14.00">~</text>
<text text-anchor="middle" x="139.71" y="-57.78" font-family="Times,serif" font-size="14.00">Binomial</text>
</g>
<!-- xs&#45;&gt;ks -->
<g id="edge3" class="edge">
<title>xs&#45;&gt;ks</title>
<path fill="none" stroke="black" d="M139.71,-149.85C139.71,-141.67 139.71,-132.89 139.71,-124.37"/>
<polygon fill="black" stroke="black" points="143.21,-124.15 139.71,-114.15 136.21,-124.15 143.21,-124.15"/>
</g>
</g>
</svg>