<?xml version="1.0" encoding="UTF-8" standalone="no"?>
<!DOCTYPE svg PUBLIC "-//W3C//DTD SVG 1.1//EN"
 "http://www.w3.org/Graphics/SVG/1.1/DTD/svg11.dtd">
<!-- Generated by graphviz version 2.43.0 (0)
 -->
<!-- Title: %3 Pages: 1 -->
<svg width="330pt" height="305pt"
 viewBox="0.00 0.00 329.74 304.86" xmlns="http://www.w3.org/2000/svg" xmlns:xlink="http://www.w3.org/1999/xlink">
<g id="graph0" class="graph" transform="scale(1 1) rotate(0) translate(4 300.86)">
<title>%3</title>
<polygon fill="white" stroke="transparent" points="-4,4 -4,-300.86 325.74,-300.86 325.74,4 -4,4"/>
<!-- n -->
<g id="node1" class="node">
<title>n</title>
<ellipse fill="lightgrey" stroke="black" cx="109.5" cy="-37.48" rx="50.41" ry="37.45"/>
<text text-anchor="middle" x="109.5" y="-48.78" font-family="Times,serif" font-size="14.00">n</text>
<text text-anchor="middle" x="109.5" y="-33.78" font-family="Times,serif" font-size="14.00">~</text>
<text text-anchor="middle" x="109.5" y="-18.78" font-family="Times,serif" font-size="14.00">Poisson</text>
</g>
<!-- rate -->
<g id="node2" class="node">
<title>rate</title>
<ellipse fill="none" stroke="black" cx="49.5" cy="-148.43" rx="49.49" ry="37.45"/>
<text text-anchor="middle" x="49.5" y="-159.73" font-family="Times,serif" font-size="14.00">rate</text>
<text text-anchor="middle" x="49.5" y="-144.73" font-family="Times,serif" font-size="14.00">~</text>
<text text-anchor="middle" x="49.5" y="-129.73" font-family="Times,serif" font-size="14.00">Normal</text>
</g>
<!-- rate&#45;&gt;n -->
<g id="edge5" class="edge">
<title>rate&#45;&gt;n</title>
<path fill="none" stroke="black" d="M68.15,-113.55C73.8,-103.31 80.07,-91.92 85.99,-81.17"/>
<polygon fill="black" stroke="black" points="89.1,-82.78 90.85,-72.33 82.96,-79.4 89.1,-82.78"/>
</g>
<!-- elapsed_time -->
<g id="node3" class="node">
<title>elapsed_time</title>
<ellipse fill="none" stroke="black" cx="194.5" cy="-148.43" rx="77.56" ry="37.45"/>
<text text-anchor="middle" x="194.5" y="-159.73" font-family="Times,serif" font-size="14.00">elapsed_time</text>
<text text-anchor="middle" x="194.5" y="-144.73" font-family="Times,serif" font-size="14.00">~</text>
<text text-anchor="middle" x="194.5" y="-129.73" font-family="Times,serif" font-size="14.00">Uniform</text>
</g>
<!-- elapsed_time&#45;&gt;n -->
<g id="edge4" class="edge">
<title>elapsed_time&#45;&gt;n</title>
<path fill="none" stroke="black" d="M167.6,-112.96C158.99,-101.92 149.39,-89.61 140.51,-78.23"/>
<polygon fill="black" stroke="black" points="143.11,-75.87 134.2,-70.14 137.59,-80.17 143.11,-75.87"/>
</g>
<!-- remaining_time -->
<g id="node5" class="node">
<title>remaining_time</title>
<polygon fill="none" stroke="black" points="311.5,-63.98 183.5,-63.98 183.5,-10.98 311.5,-10.98 311.5,-63.98"/>
<text text-anchor="middle" x="247.5" y="-48.78" font-family="Times,serif" font-size="14.00">remaining_time</text>
<text text-anchor="middle" x="247.5" y="-33.78" font-family="Times,serif" font-size="14.00">~</text>
<text text-anchor="middle" x="247.5" y="-18.78" font-family="Times,serif" font-size="14.00">Deterministic</text>
</g>
<!-- elapsed_time&#45;&gt;remaining_time -->
<g id="edge2" class="edge">
<title>elapsed_time&#45;&gt;remaining_time</title>
<path fill="none" stroke="black" d="M211.85,-111.75C217.87,-99.39 224.6,-85.55 230.58,-73.26"/>
<polygon fill="black" stroke="black" points="233.75,-74.74 234.98,-64.22 227.46,-71.68 233.75,-74.74"/>
</g>
<!-- gap_time -->
<g id="node4" class="node">
<title>gap_time</title>
<ellipse fill="none" stroke="black" cx="247.5" cy="-259.38" rx="74.49" ry="37.45"/>
<text text-anchor="middle" x="247.5" y="-270.68" font-family="Times,serif" font-size="14.00">gap_time</text>
<text text-anchor="middle" x="247.5" y="-255.68" font-family="Times,serif" font-size="14.00">~</text>
<text text-anchor="middle" x="247.5" y="-240.68" font-family="Times,serif" font-size="14.00">Interpolated</text>
</g>
<!-- gap_time&#45;&gt;elapsed_time -->
<g id="edge1" class="edge">
<title>gap_time&#45;&gt;elapsed_time</title>
<path fill="none" stroke="black" d="M230.14,-222.71C225.75,-213.68 220.98,-203.86 216.39,-194.44"/>
<polygon fill="black" stroke="black" points="219.41,-192.65 211.89,-185.19 213.12,-195.71 219.41,-192.65"/>
</g>
<!-- gap_time&#45;&gt;remaining_time -->
<g id="edge3" class="edge">
<title>gap_time&#45;&gt;remaining_time</title>
<path fill="none" stroke="black" d="M267.88,-223C273.43,-211.54 278.69,-198.52 281.5,-185.91 288.75,-153.39 288.75,-143.47 281.5,-110.95 278.61,-98 273.15,-84.63 267.43,-72.95"/>
<polygon fill="black" stroke="black" points="270.51,-71.29 262.84,-63.99 264.29,-74.49 270.51,-71.29"/>
</g>
</g>
</svg>